<?xml version="1.0" encoding="utf-8"?>
<!-- Generator: Adobe Illustrator 22.0.1, SVG Export Plug-In . SVG Version: 6.00 Build 0)  -->
<svg version="1.1" id="Calque_1" xmlns="http://www.w3.org/2000/svg" xmlns:xlink="http://www.w3.org/1999/xlink" x="0px" y="0px"
	 viewBox="0 0 15 19" style="enable-background:new 0 0 15 19;" xml:space="preserve">
<style type="text/css">
	.st0{fill:#FF2B2B;}
</style>
<path class="st0" d="M14.8,11.1l-0.6-0.6c0,0,0,0,0,0c-0.3-0.3-0.8-0.3-1.2,0l-4.1,4V1.3C8.9,0.6,8.3,0,7.6,0C6.9,0,6.4,0.6,6.4,1.3
	v13.3L2,10.4c-0.3-0.3-0.8-0.3-1.2,0c0,0,0,0,0,0L0.2,11c-0.3,0.3-0.3,0.9,0,1.2l5.9,5.8c0,0.1,0.1,0.2,0.2,0.2l0.6,0.6c0,0,0,0,0,0
	c0.3,0.3,0.8,0.3,1.2,0l6.7-6.5c0,0,0,0,0,0C15.1,11.9,15.1,11.4,14.8,11.1z"/>
</svg>
