<?xml version="1.0" encoding="utf-8"?>
<!-- Generator: Adobe Illustrator 22.0.1, SVG Export Plug-In . SVG Version: 6.00 Build 0)  -->
<svg version="1.1" id="Calque_1" xmlns="http://www.w3.org/2000/svg" xmlns:xlink="http://www.w3.org/1999/xlink" x="0px" y="0px"
	 viewBox="0 0 32.1 26" style="enable-background:new 0 0 32.1 26;" xml:space="preserve">
<style type="text/css">
	.st0{fill:#FFFFFF;}
</style>
<path class="st0" d="M31.7,12l-11-11.5c0,0,0,0,0,0c-0.6-0.5-1.4-0.5-2,0l-1,1c0,0-0.1,0.1-0.1,0.1c-0.5,0.6-0.5,1.4,0.1,2l6.7,7.1
	H2.1c-1.1,0-2.1,1-2.1,2.1c0,1.2,0.9,2.2,2.1,2.2h22.6l-7.2,7.6c-0.6,0.5-0.6,1.4-0.1,1.9c0,0,0.1,0.1,0.1,0.1l1,1
	c0.5,0.6,1.4,0.6,2,0c0,0,0,0,0,0l0,0l9.7-10.2c0.2-0.1,0.4-0.2,0.5-0.3l1-1C32.2,13.4,32.2,12.5,31.7,12z"/>
</svg>
